<svg width="484" height="112" viewBox="0 0 484 112" fill="none" xmlns="http://www.w3.org/2000/svg">
<path d="M72.5687 8.3169C77.1308 12.3893 78.5834 19.114 79.4077 25.6593C80.9338 37.6398 79.6362 55.8717 69.4756 64.5143C66.0888 67.387 62.8896 68.1623 59.7884 64.4164C55.8139 59.6176 50.4684 66.6036 46.2328 65.8935C42.8459 65.3386 41.8666 61.054 42.5603 58.165C42.6236 57.9122 42.7738 57.6897 42.9847 57.5366C44.4781 56.4593 46.3634 56.5246 46.7306 54.2231C47.4434 49.74 46.9265 45.4227 45.18 41.2715C45.1256 41.1401 45.0413 41.0233 44.9338 40.9302C44.8262 40.8371 44.6983 40.7701 44.5601 40.7346C44.4218 40.699 44.2769 40.6958 44.1367 40.7253C43.9965 40.7547 43.8648 40.8159 43.7518 40.9042C40.4139 43.5321 32.9628 49.6774 33.477 54.3864C33.5477 55.0229 34.0591 56.3641 35.0113 58.4098C36.6924 62.0333 38.5124 68.9948 33.126 70.7984C28.1559 72.4551 26.4666 71.0922 24.1488 76.9029C18.9502 89.9443 -0.791531 74.9279 0.0245804 64.5959C0.710114 55.9778 11.5726 55.888 17.4077 54.0681C34.3992 48.7552 43.5804 32.0004 53.5696 17.4981C57.2095 12.2261 65.4685 1.96755 72.5687 8.3169Z" fill="#0B0B0B"/>
<path d="M39.5077 28.1403C41.2379 28.8014 40.8053 30.0663 39.9647 31.2905C36.5779 36.179 30.2938 44.1687 24.8095 46.5762C24.5668 46.6813 24.2925 46.6873 24.0443 46.5929C23.7961 46.4985 23.5936 46.3111 23.4793 46.0703C21.5315 41.919 21.9396 37.9527 24.7035 34.1714C27.5762 30.2377 33.9418 26.0184 39.5077 28.1403Z" fill="#0B0B0B"/>
<path fill-rule="evenodd" clip-rule="evenodd" d="M56.7602 72.4381C57.6516 72.349 58.0489 71.7562 57.9522 70.6598C54.7857 65.0286 47.3835 69.8437 45.025 73.5896C44.9593 73.6923 44.8582 73.7673 44.7408 73.8004C44.6235 73.8335 44.4981 73.8224 44.3884 73.7692C40.4439 71.8105 36.551 72.1532 32.7099 74.7974C32.7099 74.7975 32.71 74.7976 32.71 74.7977C24.845 79.1377 40.0633 98.8178 43.5451 103.32L43.5893 103.378C44.2204 104.194 44.9794 104.879 45.8662 105.434C46.0678 105.56 46.2932 105.642 46.5281 105.675C46.763 105.709 47.0024 105.693 47.2311 105.63C47.4597 105.566 47.6726 105.456 47.8563 105.305C48.04 105.155 48.1905 104.968 48.2983 104.757C51.9381 97.6567 61.2581 78.2414 57.9528 70.6597C58.0496 71.7564 57.6521 72.3492 56.7602 72.4381ZM37.9252 76.3634C38.491 76.307 39.0508 76.2144 39.5815 76.1032C42.8405 75.4123 46.0914 74.6886 49.334 73.9324C49.5952 73.8725 49.8264 73.7556 50.0277 73.5815C50.4467 73.2115 50.9391 72.9612 51.5049 72.8306C51.7443 72.7708 51.9238 72.6348 52.0435 72.4226C52.2882 71.9904 52.6378 71.7521 53.0923 71.7079C52.6382 71.7523 52.2888 71.9905 52.0442 72.4225C51.9245 72.6347 51.745 72.7707 51.5056 72.8306C50.9397 72.9611 50.4474 73.2114 50.0284 73.5814C49.8271 73.7555 49.5959 73.8725 49.3347 73.9323C46.092 74.6886 42.8412 75.4122 39.5822 76.1032C39.0513 76.2144 38.4912 76.307 37.9252 76.3634Z" fill="#0B0B0B"/>
<path d="M110.703 85V27.2317H125.145C139.213 27.2317 145.349 32.1704 145.349 40.3268C145.349 49.8302 136.519 54.3948 123.349 54.3948H120.879V85H110.703ZM120.879 53.1975H123.274C130.383 53.1975 135.546 48.6329 135.546 40.4017C135.546 32.6942 130.981 28.7283 123.124 28.7283H120.879V53.1975ZM151.99 85V27.2317H166.133C179.976 27.2317 185.364 31.7963 185.364 38.5309C185.364 44.9663 179.827 49.905 167.854 50.7281C175.786 52.0002 183.718 58.5104 187.983 76.4694L190.004 85H178.555C176.011 64.8709 173.84 51.3268 163.589 51.1771L162.092 51.1023V85H151.99ZM162.092 49.8302L163.589 49.905C171.147 49.9798 176.011 45.7894 176.011 38.7554C176.011 31.9459 172.269 28.7283 165.759 28.7283H162.092V49.8302ZM196.859 85V27.2317H207.035V85H196.859ZM218.562 85V27.2317H224.997L246.548 72.5035V27.2317H256.65V85H250.739L228.664 38.7554V85H218.562ZM278.523 85V28.7283H276.428C271.115 28.7283 267.298 30.8235 263.258 36.4357H262.659V27.2317H304.713V36.4357H304.04C299.999 30.8235 296.182 28.7283 290.87 28.7283H288.774V85H278.523ZM310.711 85V27.2317H341.241V36.4357H340.567C336.452 30.8235 332.561 28.7283 325.676 28.7283H320.887V52.7485H339.894V54.3948H320.887V83.5034H325.602C332.486 83.5034 337.948 80.3606 341.166 73.0273H341.765V85H310.711ZM350.244 85V27.2317H357.428L375.462 74.3742L393.421 27.2317H400.605V85H390.727V40.1772L376.061 78.415H374.714L360.122 40.4017V85H350.244ZM412.139 85V27.2317H426.582C440.649 27.2317 446.785 32.1704 446.785 40.3268C446.785 49.8302 437.956 54.3948 424.786 54.3948H422.316V85H412.139ZM422.316 53.1975H424.711C431.82 53.1975 436.983 48.6329 436.983 40.4017C436.983 32.6942 432.418 28.7283 424.561 28.7283H422.316V53.1975ZM463.896 85.5986C460.304 85.5986 454.992 84.6259 451.325 83.0544L449.305 65.9185H450.202C454.019 76.9933 458.883 83.9524 465.393 83.9524C470.406 83.9524 472.277 80.2857 472.277 76.5443C472.277 64.0478 452.148 56.1907 452.148 40.3268C452.148 32.9187 456.563 26.0344 467.563 26.0344C471.604 26.0344 475.944 27.1568 480.134 29.8507V41.5241H479.236C477.141 33.4425 472.726 27.6807 466.141 27.6807C461.726 27.6807 459.481 30.5242 459.481 34.7895C459.481 47.4356 479.61 54.7689 479.61 70.8572C479.61 78.5647 474.821 85.5986 463.896 85.5986Z" fill="#0B0B0B"/>
</svg>
